<?xml version="1.0" encoding="UTF-8"?>
<svg width="201px" height="201px" viewBox="0 0 201 201" version="1.1" xmlns="http://www.w3.org/2000/svg" xmlns:xlink="http://www.w3.org/1999/xlink">
    <!-- Generator: Sketch 47.1 (45422) - http://www.bohemiancoding.com/sketch -->
    <title>HaDva Min</title>
    <desc>Created with Sketch.</desc>
    <defs></defs>
    <g id="Page-1" stroke="none" stroke-width="1" fill="none" fill-rule="evenodd">
        <g id="Logo-White" transform="translate(-689.000000, -59.000000)">
            <g id="HaDva-Min" transform="translate(690.000000, 60.000000)">
                <path d="M166.932822,166 C149.886742,183.285491 126.194625,194 100,194 C74.3142863,194 51.0347871,183.697771 34.0681901,167 L58.2812823,167 L58.2812823,118.665766 C58.2812823,110.717372 59.046011,104.711678 60.5754912,100.648506 C62.1049715,96.5853343 64.5191148,93.5454155 67.8179938,91.5286586 C71.1168728,89.5119018 74.8655426,88.5035384 79.0641158,88.5035384 C82.7228725,88.5035384 85.7667924,89.2894687 88.1959669,90.8613527 C90.6251414,92.4332368 92.3195402,94.5537655 93.2792141,97.2230025 C94.2388879,99.8922396 94.7187177,106.179681 94.7187177,116.085517 L94.7187177,166 L109.5,166 L166.932822,166 Z M183.727324,142.772418 L138.448731,142.772418 C139.803729,140.517878 141.574439,138.204043 143.760914,135.830842 C145.947388,133.457642 151.136338,128.651984 159.327919,121.413723 C167.5195,114.175462 173.185771,108.62819 176.326904,104.771739 C181.069398,98.9573985 184.53383,93.3952938 186.720305,88.0852582 C188.731708,83.2003966 189.817923,78.077112 189.978973,72.7152736 C192.594005,81.3504985 194,90.5110554 194,100 C194,115.403704 190.294914,129.942039 183.727319,142.772428 Z M173.809271,41.7855849 C166.752789,37.2618434 157.829957,35 147.040609,35 C134.845624,35 125,38 116.553299,44.9884511 C110.065409,50.3562636 104.958118,59.8743343 102.960325,72.4396308 C98.3592657,70.3959349 93.2129398,69.3741019 87.5211996,69.3741019 C76.1850519,69.3741019 66.4385103,74.0896833 58.2812823,83.5209875 L58.2812823,34 L33.0671776,34 C50.1132585,16.7145094 73.8053754,6 100,6 C129.930898,6 156.594484,19.9890241 173.809271,41.7855849 Z M116.026802,84.3380139 L126.916751,84.1154891 C126,73.0896739 128.540102,63.5475543 133,60 C137.459898,56.4524457 140.973915,55.7357337 146.393909,55.7357337 C151.875493,55.7357337 156.171389,57.2337939 159.281726,60.2299592 C162.392063,63.2261246 163.947208,67.5126533 163.947208,73.0896739 C163.947208,78.1327245 162.161101,83.2350285 158.588832,88.3967391 C155.940427,92.1345296 148.765202,99.2540236 137.062944,109.755435 C130.350882,115.755368 124.663243,121.208105 120,126.113678 L120,110.569121 C120,102.086879 119.565154,95.8290948 118.69545,91.795581 C118.126621,89.1574659 117.237076,86.6716205 116.026802,84.3380139 Z M33,165.93181 C16.3022292,148.965213 6,125.685714 6,100 C6,74.3142863 16.3022292,51.0347871 33,34.0681901 L33,165.93181 Z" id="Combined-Shape" fill="#FFFFFF"></path>
                <circle id="Oval-9-Copy" stroke="#FFFFFF" stroke-width="2" cx="99.5" cy="99.5" r="99.5"></circle>
            </g>
        </g>
    </g>
</svg>