<?xml version="1.0" encoding="UTF-8"?>
<svg width="682px" height="201px" viewBox="0 0 682 201" version="1.1" xmlns="http://www.w3.org/2000/svg" xmlns:xlink="http://www.w3.org/1999/xlink">
    <!-- Generator: Sketch 47 (45396) - http://www.bohemiancoding.com/sketch -->
    <title>HaDva Horizontal</title>
    <desc>Created with Sketch.</desc>
    <defs></defs>
    <g id="Page-1" stroke="none" stroke-width="1" fill="none" fill-rule="evenodd">
        <g id="Logo" transform="translate(-187.000000, -512.000000)">
            <g id="HaDva-Horizontal" transform="translate(188.000000, 513.000000)">
                <g id="Group-16">
                    <path d="M166.932822,166 C149.886742,183.285491 126.194625,194 100,194 C74.3142863,194 51.0347871,183.697771 34.0681901,167 L58.2812823,167 L58.2812823,118.665766 C58.2812823,110.717372 59.046011,104.711678 60.5754912,100.648506 C62.1049715,96.5853343 64.5191148,93.5454155 67.8179938,91.5286586 C71.1168728,89.5119018 74.8655426,88.5035384 79.0641158,88.5035384 C82.7228725,88.5035384 85.7667924,89.2894687 88.1959669,90.8613527 C90.6251414,92.4332368 92.3195402,94.5537655 93.2792141,97.2230025 C94.2388879,99.8922396 94.7187177,106.179681 94.7187177,116.085517 L94.7187177,166 L109.5,166 L166.932822,166 Z M183.727324,142.772418 L138.448731,142.772418 C139.803729,140.517878 141.574439,138.204043 143.760914,135.830842 C145.947388,133.457642 151.136338,128.651984 159.327919,121.413723 C167.5195,114.175462 173.185771,108.62819 176.326904,104.771739 C181.069398,98.9573985 184.53383,93.3952938 186.720305,88.0852582 C188.731708,83.2003966 189.817923,78.077112 189.978973,72.7152736 C192.594005,81.3504985 194,90.5110554 194,100 C194,115.403704 190.294914,129.942039 183.727319,142.772428 Z M173.809271,41.7855849 C166.752789,37.2618434 157.829957,35 147.040609,35 C134.845624,35 125,38 116.553299,44.9884511 C110.065409,50.3562636 104.958118,59.8743343 102.960325,72.4396308 C98.3592657,70.3959349 93.2129398,69.3741019 87.5211996,69.3741019 C76.1850519,69.3741019 66.4385103,74.0896833 58.2812823,83.5209875 L58.2812823,34 L33.0671776,34 C50.1132585,16.7145094 73.8053754,6 100,6 C129.930898,6 156.594484,19.9890241 173.809271,41.7855849 Z M116.026802,84.3380139 L126.916751,84.1154891 C126,73.0896739 128.540102,63.5475543 133,60 C137.459898,56.4524457 140.973915,55.7357337 146.393909,55.7357337 C151.875493,55.7357337 156.171389,57.2337939 159.281726,60.2299592 C162.392063,63.2261246 163.947208,67.5126533 163.947208,73.0896739 C163.947208,78.1327245 162.161101,83.2350285 158.588832,88.3967391 C155.940427,92.1345296 148.765202,99.2540236 137.062944,109.755435 C130.350882,115.755368 124.663243,121.208105 120,126.113678 L120,110.569121 C120,102.086879 119.565154,95.8290948 118.69545,91.795581 C118.126621,89.1574659 117.237076,86.6716205 116.026802,84.3380139 Z M33,165.93181 C16.3022292,148.965213 6,125.685714 6,100 C6,74.3142863 16.3022292,51.0347871 33,34.0681901 L33,165.93181 Z" id="Combined-Shape" fill="#3c90e4"></path>
                    <circle id="Oval-9-Copy" stroke="#3c90e4" stroke-width="2" cx="99.5" cy="99.5" r="99.5"></circle>
                </g>
                <path d="M238,123.675781 L238,75 L244.441406,75 L244.441406,94.9882812 L269.742188,94.9882812 L269.742188,75 L276.183594,75 L276.183594,123.675781 L269.742188,123.675781 L269.742188,100.732422 L244.441406,100.732422 L244.441406,123.675781 L238,123.675781 Z M285.132499,123.675781 L303.825858,75 L310.765311,75 L330.687186,123.675781 L323.349296,123.675781 L317.671561,108.933594 L297.318046,108.933594 L291.972343,123.675781 L285.132499,123.675781 Z M299.177421,103.6875 L315.679374,103.6875 L310.599296,90.2070312 C309.049809,86.1119587 307.898779,82.747409 307.146171,80.1132812 C306.526376,83.2343906 305.652036,86.3333179 304.523124,89.4101562 L299.177421,103.6875 Z M339.40367,123.675781 L339.40367,75 L356.171248,75 C359.956423,75 362.845066,75.2324196 364.837264,75.6972656 C367.62634,76.3391959 370.005874,77.5012937 371.975935,79.1835938 C374.543657,81.3528754 376.463885,84.1253086 377.736678,87.5009766 C379.00947,90.8766445 379.645857,94.7337023 379.645857,99.0722656 C379.645857,102.768899 379.214221,106.044908 378.350935,108.900391 C377.48765,111.755874 376.38089,114.118806 375.030623,115.989258 C373.680356,117.85971 372.202832,119.3317 370.598006,120.405273 C368.99318,121.478847 367.05635,122.292315 364.787459,122.845703 C362.518567,123.399091 359.912148,123.675781 356.968123,123.675781 L339.40367,123.675781 Z M345.845076,117.931641 L356.237654,117.931641 C359.447306,117.931641 361.965184,117.632815 363.791365,117.035156 C365.617546,116.437497 367.072935,115.59636 368.157576,114.511719 C369.684927,112.984367 370.874694,110.931328 371.726912,108.352539 C372.57913,105.77375 373.005232,102.647154 373.005232,98.9726562 C373.005232,93.881485 372.169629,89.9690892 370.498396,87.2353516 C368.827164,84.5016139 366.79626,82.6699265 364.405623,81.7402344 C362.679052,81.0761686 359.901085,80.7441406 356.071639,80.7441406 L345.845076,80.7441406 L345.845076,117.931641 Z M405.9932,123.675781 L387.133825,75 L394.106481,75 L406.756872,110.361328 C407.775106,113.194676 408.627311,115.850899 409.313513,118.330078 C410.06612,115.673815 410.940461,113.017591 411.936559,110.361328 L425.084997,75 L431.659216,75 L412.600622,123.675781 L405.9932,123.675781 Z M430.61398,123.675781 L449.30734,75 L456.246793,75 L476.168668,123.675781 L468.830777,123.675781 L463.153043,108.933594 L442.799527,108.933594 L437.453824,123.675781 L430.61398,123.675781 Z M444.658902,103.6875 L461.160855,103.6875 L456.080777,90.2070312 C454.53129,86.1119587 453.38026,82.747409 452.627652,80.1132812 C452.007857,83.2343906 451.133517,86.3333179 450.004605,89.4101562 L444.658902,103.6875 Z M525.709056,123.675781 L525.709056,119.226562 C523.473368,122.723976 520.186292,124.472656 515.847728,124.472656 C513.036516,124.472656 510.452232,123.697924 508.094799,122.148438 C505.737365,120.598951 503.911211,118.435235 502.616283,115.657227 C501.321355,112.879218 500.6739,109.686216 500.6739,106.078125 C500.6739,102.558576 501.260483,99.3655742 502.433666,96.4990234 C503.606849,93.6324726 505.366597,91.4355545 507.712963,89.9082031 C510.059329,88.3808517 512.682349,87.6171875 515.582103,87.6171875 C517.707114,87.6171875 519.599673,88.0654252 521.259838,88.9619141 C522.920002,89.8584029 524.270249,91.0260345 525.310619,92.4648438 L525.310619,75 L531.253978,75 L531.253978,123.675781 L525.709056,123.675781 Z M506.816478,106.078125 C506.816478,110.593773 507.768292,113.96939 509.671947,116.205078 C511.575602,118.440766 513.822325,119.558594 516.412181,119.558594 C519.024174,119.558594 521.243227,118.490571 523.069408,116.354492 C524.895589,114.218414 525.808666,110.959006 525.808666,106.576172 C525.808666,101.750627 524.878988,98.2089957 523.019603,95.9511719 C521.160219,93.6933481 518.869226,92.5644531 516.146556,92.5644531 C513.490293,92.5644531 511.27124,93.6490777 509.48933,95.8183594 C507.70742,97.9876411 506.816478,101.407529 506.816478,106.078125 Z M545.913821,123.675781 L545.913821,116.869141 L552.720462,116.869141 L552.720462,123.675781 L545.913821,123.675781 Z M564.458429,106.044922 C564.458429,99.5149413 566.273515,94.6784011 569.903742,91.5351562 C572.936309,88.923164 576.632887,87.6171875 580.993586,87.6171875 C585.841266,87.6171875 589.803466,89.2053878 592.880304,92.3818359 C595.957143,95.5582841 597.495539,99.9465866 597.495539,105.546875 C597.495539,110.084658 596.814881,113.653958 595.453547,116.254883 C594.092212,118.855807 592.111112,120.875644 589.510187,122.314453 C586.909263,123.753262 584.070424,124.472656 580.993586,124.472656 C576.057363,124.472656 572.067494,122.88999 569.023859,119.724609 C565.980224,116.559229 564.458429,111.999379 564.458429,106.044922 Z M570.601007,106.044922 C570.601007,110.560569 571.586024,113.941721 573.556086,116.188477 C575.526148,118.435233 578.005289,119.558594 580.993586,119.558594 C583.959746,119.558594 586.427821,118.429699 588.397882,116.171875 C590.367944,113.914051 591.352961,110.472028 591.352961,105.845703 C591.352961,101.485004 590.362411,98.1813263 588.381281,95.9345703 C586.400151,93.6878143 583.937611,92.5644531 580.993586,92.5644531 C578.005289,92.5644531 575.526148,93.6822805 573.556086,95.9179688 C571.586024,98.153657 570.601007,101.529274 570.601007,106.044922 Z M609.764756,123.675781 L609.764756,116.869141 L616.571397,116.869141 L616.571397,123.675781 L609.764756,123.675781 Z M628.309365,106.044922 C628.309365,99.5149413 630.124451,94.6784011 633.754677,91.5351562 C636.787245,88.923164 640.483822,87.6171875 644.844521,87.6171875 C649.692202,87.6171875 653.654401,89.2053878 656.73124,92.3818359 C659.808078,95.5582841 661.346474,99.9465866 661.346474,105.546875 C661.346474,110.084658 660.665817,113.653958 659.304482,116.254883 C657.943147,118.855807 655.962047,120.875644 653.361123,122.314453 C650.760198,123.753262 647.921359,124.472656 644.844521,124.472656 C639.908298,124.472656 635.918429,122.88999 632.874794,119.724609 C629.831159,116.559229 628.309365,111.999379 628.309365,106.044922 Z M634.451943,106.044922 C634.451943,110.560569 635.436959,113.941721 637.407021,116.188477 C639.377083,118.435233 641.856225,119.558594 644.844521,119.558594 C647.810682,119.558594 650.278756,118.429699 652.248818,116.171875 C654.21888,113.914051 655.203896,110.472028 655.203896,105.845703 C655.203896,101.485004 654.213346,98.1813263 652.232216,95.9345703 C650.251087,93.6878143 647.788546,92.5644531 644.844521,92.5644531 C641.856225,92.5644531 639.377083,93.6822805 637.407021,95.9179688 C635.436959,98.153657 634.451943,101.529274 634.451943,106.044922 Z M673.615692,123.675781 L673.615692,116.869141 L680.422333,116.869141 L680.422333,123.675781 L673.615692,123.675781 Z" id="HADVA-d.o.o." fill="#3c90e4"></path>
            </g>
        </g>
    </g>
</svg>